<?xml version="1.0" encoding="UTF-8" standalone="no"?>
<!-- Created with Inkscape (http://www.inkscape.org/) -->

<svg xmlns:dc="http://purl.org/dc/elements/1.1/" xmlns:cc="http://creativecommons.org/ns#" xmlns:rdf="http://www.w3.org/1999/02/22-rdf-syntax-ns#" xmlns:svg="http://www.w3.org/2000/svg" xmlns="http://www.w3.org/2000/svg" xmlns:xlink="http://www.w3.org/1999/xlink" xmlns:sodipodi="http://sodipodi.sourceforge.net/DTD/sodipodi-0.dtd" xmlns:inkscape="http://www.inkscape.org/namespaces/inkscape" id="svg4541" version="1.1" inkscape:version="0.48.5 r10040" width="423" height="59" sodipodi:docname="Ktla_5_news.jpeg">
  <metadata id="metadata4547">
    <rdf:RDF>
      <cc:Work rdf:about="">
        <dc:format>image/svg+xml</dc:format>
        <dc:type rdf:resource="http://purl.org/dc/dcmitype/StillImage" />
        <dc:title></dc:title>
      </cc:Work>
    </rdf:RDF>
  </metadata>
  <defs id="defs4545">
    <radialGradient r="91.496765" fy="120.34675" fx="239.51514" cy="120.34675" cx="239.51514" gradientTransform="matrix(-1.4742469e-5,11.970357,-11.604231,-3.90977e-5,466.26513,-1548.5461)" gradientUnits="userSpaceOnUse" id="radialGradient4364" xlink:href="#linearGradient3061" inkscape:collect="always" />
    <radialGradient r="91.496765" fy="120.34675" fx="239.51514" cy="120.34675" cx="239.51514" gradientTransform="matrix(-3.7650122e-6,2.9558162,-2.9635518,-9.6543164e-6,-56.864964,-317.08954)" gradientUnits="userSpaceOnUse" id="radialGradient4349" xlink:href="#linearGradient3061" inkscape:collect="always" />
    <linearGradient id="linearGradient4262">
      <stop id="stop4264" offset="0" style="stop-color:#b5bcfa;stop-opacity:1" />
      <stop style="stop-color:#31347a;stop-opacity:1" offset="0.60000002" id="stop4266" />
      <stop id="stop4268" offset="1" style="stop-color:black;stop-opacity:1" />
    </linearGradient>
    <linearGradient id="linearGradient3061">
      <stop style="stop-color:#b5bcfa;stop-opacity:1" offset="0" id="stop3063" />
      <stop id="stop4221" offset="0.5" style="stop-color:#31347a;stop-opacity:1" />
      <stop style="stop-color:black;stop-opacity:1" offset="1" id="stop3065" />
    </linearGradient>
    <radialGradient inkscape:collect="always" xlink:href="#linearGradient3061" id="radialGradient3067" cx="239.51514" cy="120.34675" fx="239.51514" fy="120.34675" r="91.496765" gradientTransform="matrix(-3.7650122e-6,2.9558162,-2.9635518,-9.6543164e-6,-56.864964,-317.08954)" gradientUnits="userSpaceOnUse" />
    <radialGradient inkscape:collect="always" xlink:href="#linearGradient3061" id="radialGradient4629" gradientUnits="userSpaceOnUse" gradientTransform="matrix(-1.4742469e-5,11.970357,-11.604231,-3.90977e-5,466.26513,-1548.5461)" cx="239.51514" cy="120.34675" fx="239.51514" fy="120.34675" r="91.496765" />
    <radialGradient inkscape:collect="always" xlink:href="#linearGradient3061" id="radialGradient4638" gradientUnits="userSpaceOnUse" gradientTransform="matrix(-1.4742469e-5,11.970357,-11.604231,-3.90977e-5,466.26513,-1548.5461)" cx="239.51514" cy="120.34675" fx="239.51514" fy="120.34675" r="91.496765" />
  </defs>
  <sodipodi:namedview pagecolor="#ffffff" bordercolor="#666666" borderopacity="1" objecttolerance="10" gridtolerance="10" guidetolerance="10" inkscape:pageopacity="0" inkscape:pageshadow="2" inkscape:window-width="1366" inkscape:window-height="706" id="namedview4543" showgrid="false" inkscape:zoom="8.4562278" inkscape:cx="420.85635" inkscape:cy="16.340066" inkscape:window-x="-8" inkscape:window-y="-8" inkscape:window-maximized="1" inkscape:current-layer="svg4541" />
  <g id="g4641">
    <path style="fill:black;fill-opacity:1;fill-rule:evenodd;stroke:none" d="m 169.73502,3.3288209 46.73389,0 0,52.3586441 -46.73389,0 z" id="path3011" inkscape:connector-curvature="0" />
    <path sodipodi:nodetypes="cccccc" inkscape:connector-curvature="0" id="path3026" d="m 207.67484,15.080034 2.96047,-7.8716709 -28.86455,0 -5.32885,14.1690139 c 3.07678,-2.747981 6.3443,-5.419124 14.06222,-6.297343 z" style="fill:white;stroke:none" />
    <path id="path3040" d="m 193.32254,16.890898 c -8.27117,0 -15.40131,4.597078 -18.68292,11.233956 l 17.45133,0 c 0.16276,-0.0079 0.32313,-0.02243 0.48799,-0.02243 0.16486,0 0.32523,0.01459 0.48799,0.02243 0.0232,0.0014 0.0465,-0.0014 0.0697,0 4.88912,0.271592 8.76052,4.072221 8.76052,8.71755 0,4.821665 -4.1679,8.71755 -9.31822,8.71755 -5.15031,0 -9.31822,-3.895885 -9.31822,-8.71755 0,-1.070889 0.20409,-2.107634 0.58094,-3.055636 l -10.96808,0 c -0.11624,0.836266 -0.16266,1.69513 -0.16266,2.561342 0,10.74435 9.22914,19.410458 20.61162,19.410458 11.38248,0 20.61162,-8.666108 20.61162,-19.410458 0,-10.74435 -9.22914,-19.457212 -20.61162,-19.457212 z" style="fill:white;fill-opacity:1;fill-rule:evenodd;stroke:none" inkscape:connector-curvature="0" sodipodi:nodetypes="cccsccsssccssscc" />
    <path style="fill:black;stroke:none" d="m 33.711718,13.912674 -24.9680475,16.5043 0,-16.36827 -4.7091883,0 0,37.882796 4.8490621,0 0,-17.909882 25.6907487,17.909882 8.695694,0 -28.231853,-19.292794 19.815915,-14.282569 18.696898,0 0,33.575363 4.546001,0 0,-33.439334 17.834319,0 0,33.575358 42.522613,0 3.84662,-6.801219 22.96315,0 4.28955,6.665195 12.98526,0 -21.12144,-37.882796 -14.26746,0 -15.82941,28.451768 -23.26621,0 0,-28.587798 -54.342222,0 z m 100.431702,10.292514 7.57667,12.33288 -15.03678,0 7.46011,-12.33288 z" id="path4325" inkscape:connector-curvature="0" />
    <path sodipodi:nodetypes="ccccccccccc" inkscape:connector-curvature="0" id="path4593" d="m 268.8712,51.941329 0,-37.646246 -9.83936,0 0,25.240097 -23.34901,-25.53869 -11.73045,0 0,37.921347 10.90886,0 0,-25.002705 23.5289,25.026197 z" style="fill:black;stroke:none" />
    <path id="rect4595" d="M 274 14.0625 L 274 21 L 274 29 L 274 35.9375 L 274 44.09375 L 274 51.9375 L 274 51.96875 L 284.9375 51.96875 L 284.9375 51.9375 L 313.9375 51.9375 L 313.9375 44.09375 L 284.9375 44.09375 L 284.9375 35.9375 L 310.9375 35.9375 L 310.9375 29 L 284.9375 29 L 284.9375 21 L 311.875 21 L 311.875 14.0625 L 274 14.0625 z " style="fill:black;fill-opacity:1;fill-rule:evenodd;stroke:none" />
    <path sodipodi:nodetypes="cccccccccccccc" inkscape:connector-curvature="0" id="path4605" d="m 331.49155,37.940158 -5.62667,-23.792798 -11.09259,0 11.41411,37.779105 10.77107,0 8.68115,-25.400419 9.32421,25.400419 10.93183,0 10.28877,-37.912299 -10.12801,0 -6.10896,23.847935 -8.5204,-23.714741 -11.09259,0 z" style="fill:black;stroke:none" />
    <path d="m 389.79007,21.433602 c 1.55283,-0.922602 3.7273,-1.38392 6.52342,-1.383954 2.48328,3.4e-5 5.45771,0.520465 7.89129,1.217292 2.43351,1.062767 2.39411,1.593243 4.78598,3.978234 l 10.40008,-2.326165 c -2.27713,-3.688586 -8.98517,-8.187423 -12.16904,-9.034263 -3.18395,-0.846764 -6.7687,-1.270165 -10.75429,-1.270204 -2.69186,3.9e-5 -5.17635,0.272924 -7.45348,0.818652 -2.27717,0.545808 -4.23127,1.32683 -5.86231,2.34307 -1.63106,1.016314 -2.91221,2.230504 -3.84344,3.642574 -0.93126,1.412135 -1.39687,2.983947 -1.39687,4.715439 0,1.845298 0.40085,3.208649 1.20256,4.488594 0.8017,1.279993 1.96634,2.371816 3.49393,3.275472 1.52757,0.903698 3.41691,1.656857 5.66801,2.259481 2.25107,0.602662 4.82601,1.148717 7.7248,1.638168 2.53699,0.451568 4.59496,0.884448 6.1739,1.298641 1.5789,0.414225 2.82134,0.856584 3.72734,1.32708 0.90593,0.470523 1.17844,0.788871 1.51495,1.353585 0.41283,1.896731 -0.2317,2.299048 -1.64872,3.648094 -1.73456,0.903683 -4.07648,1.355522 -7.02578,1.355516 -3.41693,6e-6 -6.48935,0.05912 -9.16312,-0.878723 -3.09039,-1.083981 -3.61401,-2.354759 -5.20752,-4.958134 l -10.3294,2.380015 c 0.32131,3.290959 8.49997,9.364996 12.33079,10.400805 3.83078,1.035811 7.84245,1.553716 12.03503,1.553717 2.84819,-10e-7 5.46262,-0.263693 7.84329,-0.791077 2.38057,-0.527384 4.42512,-1.299215 6.13362,-2.315495 1.70842,-1.016275 3.0413,-2.258615 3.99865,-3.727024 0.95725,-1.468396 1.4359,-4.179042 1.43595,-6.062239 -5e-5,-1.655677 -0.37522,-3.095354 -1.12554,-4.31904 -0.75041,-1.223653 -1.61376,-3.006342 -3.06311,-3.928995 -1.44942,-0.922616 -3.06215,-1.642014 -5.26186,-2.28202 -2.19979,-0.639964 -5.17213,-1.074196 -8.02032,-1.601603 -2.58759,-0.451528 -3.9255,-0.48587 -6.05623,-0.800469 -1.68241,-0.414185 -3.10189,-0.766389 -4.05918,-0.956978 -1.45548,-0.53926 -1.86633,-1.016539 -2.22885,-1.581292 -0.81816,-1.083841 0.49075,-2.686098 1.78547,-3.476754 z" id="path4619" inkscape:connector-curvature="0" sodipodi:nodetypes="cccccccccssccccccccssccsssccccccccccc" style="font-size:64px;font-style:normal;font-variant:normal;font-weight:normal;font-stretch:normal;line-height:125%;letter-spacing:0px;word-spacing:0px;fill:black;fill-opacity:1;stroke:none;font-family:Gotham;-inkscape-font-specification:Gotham" />
  </g>
</svg>
